# AST/ASF file generated using VICON BodyLanguage
# -----------------------------------------------
:version 1.10
:name VICON
:units
  mass 1.0
  length 0.45
  angle deg
:documentation
   .ast/.asf automatically generated from VICON data using
   VICON BodyBuilder and BodyLanguage model FoxedUp or BRILLIANT.MOD
:root
   order TX TY TZ RX RY RZ
   axis XYZ
   position 0 0 0  
   orientation 0 0 0 
:bonedata
  begin
     id 1 
     name lhipjoint
     direction 0.623529 -0.717805 0.309788 
     length 2.23224 
     axis 0 0 0  XYZ
  end
  begin
     id 2 
     name lfemur
     direction 0.34202 -0.939693 0  
     length 7.11402  
     axis 0 0 20  XYZ
    dof rx ry rz
    limits (-160.0 20.0)
           (-70.0 70.0)
           (-60.0 70.0)
  end
  begin
     id 3 
     name ltibia
     direction 0.34202 -0.939693 0   
     length 6.78496   
     axis 0 0 20   XYZ
    dof rx
    limits (-10.0 170.0)
  end
  begin
     id 4 
     name lfoot
     direction 0.125078 -0.343648 0.930732   
     length 1.84054   
     axis -90 7.62852e-016 20   XYZ
    dof rx rz
    limits (-45.0 90.0)
           (-70.0 20.0)
  end
  begin
     id 5 
     name ltoes
     direction 1.53565e-011 -4.21893e-011 1   
     length 0.916474   
     axis -90 7.62852e-016 20   XYZ
    dof rx
    limits (-90.0 20.0)
  end
  begin
     id 6 
     name rhipjoint
     direction -0.564688 -0.757748 0.327026   
     length 2.11457  
     axis 0 0 0  XYZ 
  end
  begin
     id 7 
     name rfemur
     direction -0.34202 -0.939693 0   
     length 7.14609   
     axis 0 0 -20   XYZ
    dof rx ry rz
    limits (-160.0 20.0)
           (-70.0 70.0)
           (-70.0 60.0)
  end
  begin
     id 8 
     name rtibia
     direction -0.34202 -0.939693 0   
     length 6.78101   
     axis 0 0 -20   XYZ
    dof rx
    limits (-10.0 170.0)
 end
 begin
     id 9 
     name rfoot
     direction -0.0992671 -0.272734 0.956955   
     length 1.96168  
     axis -90 -7.62852e-016 -20   XYZ
    dof rx rz
    limits (-45.0 90.0)
           (-20.0 70.0)
  end
  begin
     id 10 
     name rtoes
     direction -1.5356e-011 -4.21891e-011 1   
     length 0.982933   
     axis -90 -7.62852e-016 -20   XYZ
    dof rx
    limits (-90.0 20.0)
  end
  begin
     id 11 
     name lowerback
     direction -0.00596953 0.998668 0.0512524   
     length 1.87557   
     axis 0 0 0   XYZ
    dof rx ry rz
    limits (-20.0 45.0)
           (-30.0 30.0)
           (-30.0 30.0)
  end
  begin
     id 12 
     name upperback
     direction 0.00584879 0.999652 0.0257308   
     length 1.87883   
     axis 0 0 0   XYZ
    dof rx ry rz
    limits (-20.0 45.0)
           (-30.0 30.0)
           (-30.0 30.0)
  end
  begin
     id 13 
     name thorax
     direction 0.010104 0.999947 0.00178881   
     length 1.87779   
     axis 0 0 0   XYZ
    dof rx ry rz
    limits (-20.0 45.0)
           (-30.0 30.0)
           (-30.0 30.0)
  end
  begin
     id 14 
     name lowerneck
     direction 0.0120771 0.995934 -0.0892773   
     length 1.40897   
     axis 0 0 0   XYZ
    dof rx ry rz
    limits (-20.0 45.0)
           (-30.0 30.0)
           (-30.0 30.0)
  end
  begin
     id 15 
     name upperneck
     direction -0.030568 0.999465 -0.0116366   
     length 1.38661   
     axis 0 0 0   XYZ
    dof rx ry rz
    limits (-20.0 45.0)
           (-30.0 30.0)
           (-30.0 30.0)
  end
  begin
     id 16
     name head
     direction -0.0170715 0.999854 -0.00104426  
     length 1.47052  
     axis 0 0 0   XYZ
    dof rx ry rz
    limits (-20.0 45.0)
           (-30.0 30.0)
           (-30.0 30.0)
  end
  begin
     id 17 
     name lclavicle
     direction 0.977763 0.206143 0.038532  
     length 3.02424  
     axis 0 0 0   XYZ
    dof ry rz
    limits (-20.0 10.0)
           (0.0 20.0)
  end
  begin
     id 18 
     name lhumerus
     direction 1 -4.48965e-011 -2.62654e-027   
     length 4.68382   
     axis 180 -30 -90   XYZ
    dof rx ry rz
    limits (-60.0 90.0)
           (-90.0 90.0)
           (-90.0 90.0)
  end
  begin
     id 19
     name lradius
     direction 1 -4.48973e-011 -1.54954e-027   
     length 2.98124   
     axis 180 -30 -90   XYZ
    dof rx
    limits (-10.0 170.0)
  end
  begin
     id 20
     name lwrist
     direction 1 -4.48959e-011 7.20928e-028   
     length 1.49062   
     axis -5.52449e-016 90 90   XYZ
    dof ry
    limits (-180.0 0.0)
 end
  begin
     id 21 
     name lhand
     direction 1 -4.48971e-011 1.44186e-027   
     length 0.707595   
     axis -9.20027e-016 90 90   XYZ
    dof rx rz
    limits (-90.0 90.0)
           (-45.0 45.0)
  end
  begin
     id 22 
     name lfingers
     direction 1 -4.48985e-011 2.88371e-027   
     length 0.570481   
     axis -1.84005e-015 90 90   XYZ
    dof rx
    limits (0.0 90.0)
  end
  begin
     id 23
     name lthumb
     direction 0.707107 -6.34929e-011 0.707107   
     length 0.819101   
     axis -90 45 2.85299e-015   XYZ
    dof rx rz
    limits (-45.0 45.0)
           (-45.0 45.0)
  end
  begin
     id 24 
     name rclavicle
     direction -0.958661 0.284411 -0.00895327   
     length 3.11921  
     axis 0 0 0   XYZ 
    dof ry rz
    limits (-10.0 20.0)
           (-20.0 0.0)
  end
  begin
     id 25 
     name rhumerus
     direction -1 -4.48963e-011 -4.22193e-027  
     length 4.75876   
     axis 180 30 90   XYZ
    dof rx ry rz
    limits (-90.0 60.0)
           (-90.0 90.0)
           (-90.0 90.0)
  end
  begin
     id 26 
     name rradius
     direction -1 -4.48968e-011 -1.07616e-027   
     length 2.93293   
     axis 180 30 90   XYZ
    dof rx
    limits (-10.0 170.0)
  end
  begin
     id 27 
     name rwrist
     direction -1 -4.48965e-011 7.20928e-028   
     length 1.46647   
     axis -5.52449e-016 -90 -90   XYZ
    dof ry
    limits (-180.0 0.0)
  end
  begin
     id 28
     name rhand
     direction -1 -4.48971e-011 1.44186e-027   
     length 0.831748   
     axis -9.20027e-016 -90 -90   XYZ
    dof rx rz
    limits (-90.0 90.0)
           (-45.0 45.0)
  end
  begin
     id 29
     name rfingers
     direction -1 -4.48961e-011 2.88371e-027   
     length 0.670577   
     axis -1.84005e-015 -90 -90   XYZ
    dof rx
    limits (0.0 90.0)
  end
  begin
     id 30
     name rthumb
     direction -0.707107 -6.34929e-011 0.707107   
     length 0.962818   
     axis -90 -45 -2.85299e-015   XYZ
    dof rx rz
    limits (-45.0 45.0)
           (-45.0 45.0)
  end
:hierarchy
  begin
    root lhipjoint rhipjoint lowerback
    lhipjoint lfemur
    lfemur ltibia
    ltibia lfoot
    lfoot ltoes
    rhipjoint rfemur
    rfemur rtibia
    rtibia rfoot
    rfoot rtoes
    lowerback upperback
    upperback thorax
    thorax lowerneck lclavicle rclavicle
    lowerneck upperneck
    upperneck head
    lclavicle lhumerus
    lhumerus lradius
    lradius lwrist
    lwrist lhand lthumb
    lhand lfingers
    rclavicle rhumerus
    rhumerus rradius
    rradius rwrist
    rwrist rhand rthumb
    rhand rfingers
  end

#!OML:ASF E:\id_vita\Project 1\Capture day 1\Session 1\Female.ASF
:FULLY-SPECIFIED
:DEGREES
61
root 9.10113 26.3603 0.370074 -133.347 -86.2854 155.621
lowerback -9.79086 -0.179628 -3.88777
upperback -4.31221 -0.0373489 -1.18416
thorax 1.00248 -0.0571226 0.955504
lowerneck -4.21506 -1.66665 -6.56576
upperneck 3.48237 -2.30006 9.3375
head 2.10892 -1.04467 4.22995
rclavicle -2.68359e-015 7.95139e-016
rhumerus 14.7763 -12.2971 -41.6442
rradius 120.857
rwrist -1.93067
rhand -30.648 11.9693
rfingers 7.12502
rthumb -3.94321 -17.9739
lclavicle -2.68359e-015 7.95139e-016
lhumerus 35.5395 14.3768 32.0142
lradius 100.858
lwrist -8.73248
lhand -31.5908 25.0514
lfingers 7.12502
lthumb -4.85364 54.9758
rfemur -48.3592 -0.344878 18.286
rtibia 52.8063
rfoot -16.1883 -16.0549
rtoes -19.1404
lfemur -47.0884 -1.46192 -21.3302
ltibia 53.5258
lfoot -23.3883 12.3596
ltoes -6.64584
62
root 9.1307 26.3128 0.369385 -134.372 -86.0903 156.887
lowerback -9.69614 -0.111328 -3.90395
upperback -4.24332 0.056724 -1.27154
thorax 1.01804 -0.0104088 0.884083
lowerneck -4.40768 -1.47789 -6.54367
upperneck 3.06894 -2.02157 9.50385
head 1.98505 -0.901733 4.29106
rclavicle 1.14301e-015 -5.08889e-014
rhumerus 14.9065 -12.2913 -41.802
rradius 120.596
rwrist -1.94462
rhand -30.918 11.7993
rfingers 7.12502
rthumb -4.20399 -18.139
lclavicle 1.14301e-015 -5.08889e-014
lhumerus 35.527 14.4001 31.8912
lradius 100.802
lwrist -8.70941
lhand -31.3621 25.1776
lfingers 7.12502
lthumb -4.63277 55.1069
rfemur -49.5569 -0.500363 18.444
rtibia 54.075
rfoot -15.8084 -16.2392
rtoes -21.1925
lfemur -48.1984 -1.22289 -21.3998
ltibia 54.8497
lfoot -24.1121 12.633
ltoes -9.21778
63
root 9.16527 26.2576 0.370382 -134.435 -85.9691 157.176
lowerback -9.38011 -0.0749981 -3.94699
upperback -4.3137 0.089643 -1.29933
thorax 0.770002 0.0109416 0.882921
lowerneck -5.29149 -1.55096 -6.29763
upperneck 3.65084 -2.13456 9.62237
head 2.11631 -0.909199 3.85325
rclavicle 5.01931e-015 2.38542e-015
rhumerus 15.0209 -12.2038 -41.8486
rradius 120.396
rwrist -2.44952
rhand -30.7295 11.6595
rfingers 7.12502
rthumb -4.02189 -18.2823
lclavicle 5.01931e-015 2.38542e-015
lhumerus 35.3844 14.2761 31.7899
lradius 100.64
lwrist -8.63026
lhand -31.4111 25.5086
lfingers 7.12502
lthumb -4.68006 55.4369
rfemur -50.7283 -0.696658 18.581
rtibia 55.3892
rfoot -15.4431 -16.459
rtoes -22.3772
lfemur -49.3564 -1.05315 -21.453
ltibia 56.2231
lfoot -23.5357 12.5751
ltoes -11.8993
64
root 9.20425 26.1977 0.372622 -134.349 -85.9643 157.232
lowerback -8.93706 -0.0623897 -4.01237
upperback -4.42305 0.0838873 -1.23248
thorax 0.412994 0.0169728 0.987994
lowerneck -4.72225 -1.43684 -6.43348
upperneck 2.80611 -1.93822 9.42998
head 1.94491 -0.855059 4.24277
rclavicle 4.32357e-015 3.81667e-014
rhumerus 15.0869 -12.0365 -41.7377
rradius 120.155
rwrist -3.00304
rhand -30.2851 11.6342
rfingers 7.12502
rthumb -3.59278 -18.3152
lclavicle 4.32357e-015 3.81667e-014
lhumerus 35.2605 14.0838 31.7739
lradius 100.338
lwrist -8.55352
lhand -31.8169 25.8271
lfingers 7.12502
lthumb -5.07193 55.7464
rfemur -51.8028 -0.927773 18.6953
rtibia 56.772
rfoot -15.577 -16.2016
rtoes -20.8487
lfemur -50.4209 -1.06596 -21.3824
ltibia 57.6404
lfoot -23.5256 12.8027
ltoes -15.3707
65
root 9.23963 26.1343 0.372946 -134.46 -85.8953 157.574
lowerback -8.75952 -0.00438971 -4.0637
upperback -4.47427 0.153368 -1.23006
thorax 0.258609 0.055641 1.02524
lowerneck -4.79073 -1.52547 -6.28905
upperneck 2.667 -2.04299 9.20713
head 1.91326 -0.908785 4.12816
rclavicle -3.18055e-015 -1.15295e-014
rhumerus 14.9873 -11.8918 -41.6038
rradius 119.801
rwrist -3.09457
rhand -30.3354 11.7351
rfingers 7.12502
rthumb -3.64138 -18.2136
lclavicle -3.18055e-015 -1.15295e-014
lhumerus 35.262 13.8836 31.7558
lradius 100.021
lwrist -8.53262
lhand -31.8418 25.8698
lfingers 7.12502
lthumb -5.09601 55.7885
rfemur -52.9976 -1.12305 18.7868
rtibia 58.1871
rfoot -15.8315 -15.8472
rtoes -19.9635
lfemur -51.561 -1.11817 -21.2669
ltibia 59.0801
lfoot -23.2796 12.2843
ltoes -13.7598
66
root 9.27083 26.0702 0.372693 -134.013 -85.7659 157.334
lowerback -8.67457 0.0360679 -4.1217
upperback -4.43235 0.210943 -1.28913
thorax 0.252436 0.0851544 1.00167
lowerneck -4.9514 -1.58675 -6.1915
upperneck 2.47965 -2.10866 9.11186
head 1.8827 -0.940211 4.07039
rclavicle 8.44835e-016 1.35174e-014
rhumerus 15.0305 -11.6974 -41.5893
rradius 119.259
rwrist -2.88081
rhand -30.915 12.1456
rfingers 7.12502
rthumb -4.20102 -17.7927
lclavicle 8.44835e-016 1.35174e-014
lhumerus 35.1897 13.7824 31.6718
lradius 99.8701
lwrist -8.42781
lhand -31.8064 25.7164
lfingers 7.12502
lthumb -5.06176 55.636
rfemur -54.1303 -1.33799 18.855
rtibia 59.5622
rfoot -16.1705 -15.6968
rtoes -20.9231
lfemur -52.7085 -1.15924 -21.2142
ltibia 60.5417
lfoot -23.1522 12.0137
ltoes -14.2789
67
root 9.30156 26.0007 0.374128 -133.179 -85.6558 156.616
lowerback -8.47871 0.0176059 -4.20239
upperback -4.40047 0.185483 -1.31294
thorax 0.178397 0.0754338 1.01978
lowerneck -5.3453 -1.55531 -6.45026
upperneck 2.46143 -2.04352 9.37981
head 1.955 -0.897381 4.22223
rclavicle 1.44119e-015 5.1684e-015
rhumerus 15.2692 -11.3407 -41.6063
rradius 118.617
rwrist -2.67662
rhand -31.6767 12.9536
rfingers 7.12502
rthumb -4.93656 -16.9689
lclavicle 1.44119e-015 5.1684e-015
lhumerus 34.9301 13.6955 31.4413
lradius 99.7972
lwrist -8.12499
lhand -32.0516 25.764
lfingers 7.12502
lthumb -5.29859 55.6778
rfemur -55.1577 -1.64172 18.9607
rtibia 60.877
rfoot -16.4661 -15.6293
rtoes -21.4469
lfemur -53.8126 -1.20464 -21.2097
ltibia 62.007
lfoot -22.6589 11.8526
ltoes -15.7671
68
root 9.34135 25.9279 0.384797 -135.843 -85.7796 159.218
lowerback -8.06185 0.0752233 -3.79862
upperback -4.34568 0.221207 -1.29416
thorax 0.00828013 0.0930009 0.815341
lowerneck -5.49819 -1.68719 -6.23276
upperneck 2.24016 -2.21244 9.27717
head 1.91829 -0.980415 4.13305
rclavicle -2.5345e-015 4.41302e-014
rhumerus 15.4079 -11.02 -41.5012
rradius 118.082
rwrist -2.57652
rhand -32.104 12.6382
rfingers 7.12502
rthumb -5.34914 -17.2743
lclavicle -2.5345e-015 4.41302e-014
lhumerus 34.7685 13.4741 31.2651
lradius 99.5685
lwrist -7.97905
lhand -32.0987 26.0294
lfingers 7.12502
lthumb -5.34406 55.942
rfemur -55.9812 -2.08462 19.4788
rtibia 62.1531
rfoot -16.5986 -15.5663
rtoes -21.6705
lfemur -54.784 -1.22141 -20.9155
ltibia 63.5319
lfoot -22.5858 11.7395
ltoes -16.9579
69
root 9.37737 25.8618 0.391635 -137.081 -85.7946 160.526
lowerback -7.96409 0.147813 -3.6121
upperback -4.24877 0.309548 -1.28451
thorax 0.0532989 0.135421 0.727752
lowerneck -5.42862 -1.7311 -5.81529
upperneck 2.05667 -2.26408 8.69107
head 1.82691 -1.01509 3.83601
rclavicle 7.45443e-015 -4.21423e-014
rhumerus 15.6282 -10.8208 -41.2986
rradius 117.519
rwrist -2.53171
rhand -32.5189 12.6566
rfingers 7.12502
rthumb -5.74974 -17.2454
lclavicle 7.45443e-015 -4.21423e-014
lhumerus 34.7857 13.1777 31.352
lradius 99.1964
lwrist -8.10331
lhand -32.0879 26.314
lfingers 7.12502
lthumb -5.33361 56.2269
rfemur -56.9161 -2.48633 19.832
rtibia 63.4233
rfoot -16.7327 -15.5428
rtoes -21.7561
lfemur -55.8005 -1.20797 -20.813
ltibia 64.9781
lfoot -22.5951 11.8174
ltoes -19.0175
70
root 9.41207 25.7802 0.394873 -137.977 -85.8766 161.429
lowerback -7.75576 0.14768 -3.49036
upperback -4.16391 0.300403 -1.18928
thorax 0.0275889 0.13266 0.756517
lowerneck -5.39204 -1.68089 -6.33328
upperneck 1.5798 -2.16112 9.26724
head 1.67752 -0.964729 4.14483
rclavicle -1.78906e-015 1.31198e-014
rhumerus 15.9242 -10.5421 -41.0747
rradius 116.861
rwrist -2.46313
rhand -32.7063 12.968
rfingers 7.12502
rthumb -5.93071 -16.929
lclavicle -1.78906e-015 1.31198e-014
lhumerus 34.6216 12.9467 31.435
lradius 98.9049
lwrist -8.11543
lhand -31.9248 26.6679
lfingers 7.12502
lthumb -5.17617 56.5847
rfemur -57.7838 -2.8882 20.1908
rtibia 64.743
rfoot -17.0239 -15.5383
rtoes -21.6739
lfemur -56.7716 -1.16986 -20.7388
ltibia 66.4462
lfoot -22.647 12.0915
ltoes -21.4727
71
root 9.44277 25.6898 0.393566 -135.059 -85.6967 158.645
lowerback -7.83945 0.0998151 -3.853
upperback -4.08154 0.269017 -1.20473
thorax 0.156647 0.119833 0.941696
lowerneck -5.87831 -1.56307 -6.6111
upperneck 1.82671 -1.99039 9.58109
head 1.84592 -0.863673 4.32434
rclavicle 5.31749e-015 9.14409e-015
rhumerus 16.0483 -10.2326 -40.9
rradius 116.214
rwrist -2.38876
rhand -32.7983 13.2526
rfingers 7.12502
rthumb -6.01951 -16.6419
lclavicle 5.31749e-015 9.14409e-015
lhumerus 34.4668 12.7344 31.4135
lradius 98.6222
lwrist -8.02844
lhand -31.7162 26.8741
lfingers 7.12502
lthumb -4.9747 56.7957
rfemur -58.8618 -3.16919 20.111
rtibia 66.0836
rfoot -17.4442 -15.51
rtoes -21.8419
lfemur -57.8434 -1.17752 -21.0128
ltibia 67.8249
lfoot -22.8028 12.4293
ltoes -23.2822
72
root 9.4773 25.6026 0.396587 -134.91 -85.7233 158.487
lowerback -7.35451 0.162316 -3.80664
upperback -4.28147 0.314301 -1.23858
thorax -0.319383 0.149656 0.88189
lowerneck -5.86701 -1.66915 -5.85325
upperneck 2.07264 -2.1704 8.84568
head 1.90959 -0.957207 3.90309
rclavicle -8.69683e-015 2.46493e-014
rhumerus 15.6298 -9.70847 -40.5934
rradius 115.608
rwrist -2.33895
rhand -32.7067 13.338
rfingers 7.12502
rthumb -5.93104 -16.5589
lclavicle -8.69683e-015 2.46493e-014
lhumerus 34.2845 11.933 31.2683
lradius 98.3134
lwrist -7.81377
lhand -31.894 26.9559
lfingers 7.12502
lthumb -5.14638 56.8734
rfemur -59.7311 -3.44094 20.288
rtibia 67.3793
rfoot -17.9585 -15.5186
rtoes -21.9662
lfemur -58.7027 -1.23204 -20.9752
ltibia 69.1527
lfoot -22.9047 12.5094
ltoes -23.2414
73
root 9.50708 25.5216 0.396715 -135.619 -85.7798 159.019
lowerback -7.07838 0.2119 -3.78256
upperback -4.18835 0.375252 -1.19284
thorax -0.378013 0.183469 0.918666
lowerneck -5.7955 -1.71572 -5.88753
upperneck 1.92211 -2.22491 8.85729
head 1.8521 -0.987496 3.91028
rclavicle -6.85807e-015 -8.34896e-015
rhumerus 15.5732 -9.36073 -40.2189
rradius 114.867
rwrist -2.2789
rhand -32.6957 13.5112
rfingers 7.12502
rthumb -5.9204 -16.386
lclavicle -6.85807e-015 -8.34896e-015
lhumerus 34.1837 11.4013 31.0858
lradius 98.098
lwrist -7.38236
lhand -32.0613 27.1409
lfingers 7.12502
lthumb -5.30796 57.0544
rfemur -60.3145 -3.67697 20.513
rtibia 68.6004
rfoot -18.4197 -15.5942
rtoes -22.1004
lfemur -59.2588 -1.20324 -20.9193
ltibia 70.3929
lfoot -23.1161 12.574
ltoes -22.7358
74
root 9.53172 25.439 0.391269 -133.469 -85.5602 156.791
lowerback -7.1887 0.206837 -4.21396
upperback -3.98129 0.412981 -1.19482
thorax -0.109807 0.205012 1.16188
lowerneck -5.79991 -1.50499 -6.11265
upperneck 1.38269 -1.90983 9.1706
head 1.65928 -0.833301 4.07379
rclavicle -5.46658e-015 7.15625e-015
rhumerus 15.7547 -9.03768 -39.8417
rradius 114.088
rwrist -2.25441
rhand -33.0502 13.6637
rfingers 7.12502
rthumb -6.26264 -16.2237
lclavicle -5.46658e-015 7.15625e-015
lhumerus 34.0103 11.1225 30.7421
lradius 97.8524
lwrist -6.92165
lhand -32.1367 27.495
lfingers 7.12502
lthumb -5.38075 57.4067
rfemur -61.0253 -3.82714 20.3609
rtibia 69.7912
rfoot -18.7301 -15.6898
rtoes -22.5039
lfemur -59.8943 -1.13404 -21.2571
ltibia 71.5377
lfoot -23.4691 13.0727
ltoes -23.9394
